<mxfile host="app.diagrams.net" modified="2024-06-20T09:14:22.500Z" agent="Mozilla/5.0 (Windows NT 10.0; Win64; x64) AppleWebKit/537.36 (KHTML, like Gecko) Chrome/126.0.0.0 Safari/537.36" etag="nD_3jjvMM8VCX8A3jiMI" version="24.5.4" type="device">
  <diagram id="C5RBs43oDa-KdzZeNtuy" name="Page-1">
    <mxGraphModel dx="595" dy="484" grid="1" gridSize="10" guides="1" tooltips="1" connect="1" arrows="1" fold="1" page="1" pageScale="1" pageWidth="827" pageHeight="1169" math="0" shadow="0">
      <root>
        <mxCell id="WIyWlLk6GJQsqaUBKTNV-0" />
        <mxCell id="WIyWlLk6GJQsqaUBKTNV-1" parent="WIyWlLk6GJQsqaUBKTNV-0" />
        <mxCell id="fzq1yUbTCctabkoBCWMD-10" style="edgeStyle=orthogonalEdgeStyle;rounded=0;orthogonalLoop=1;jettySize=auto;html=1;exitX=0.75;exitY=0;exitDx=0;exitDy=0;entryX=0.75;entryY=1;entryDx=0;entryDy=0;" edge="1" parent="WIyWlLk6GJQsqaUBKTNV-1" source="fzq1yUbTCctabkoBCWMD-0" target="fzq1yUbTCctabkoBCWMD-1">
          <mxGeometry relative="1" as="geometry" />
        </mxCell>
        <mxCell id="fzq1yUbTCctabkoBCWMD-15" style="edgeStyle=orthogonalEdgeStyle;rounded=0;orthogonalLoop=1;jettySize=auto;html=1;exitX=0;exitY=0.75;exitDx=0;exitDy=0;entryX=0.25;entryY=1;entryDx=0;entryDy=0;" edge="1" parent="WIyWlLk6GJQsqaUBKTNV-1" source="fzq1yUbTCctabkoBCWMD-0" target="fzq1yUbTCctabkoBCWMD-2">
          <mxGeometry relative="1" as="geometry" />
        </mxCell>
        <mxCell id="fzq1yUbTCctabkoBCWMD-16" style="edgeStyle=orthogonalEdgeStyle;rounded=0;orthogonalLoop=1;jettySize=auto;html=1;exitX=1;exitY=0.25;exitDx=0;exitDy=0;entryX=0;entryY=0.25;entryDx=0;entryDy=0;" edge="1" parent="WIyWlLk6GJQsqaUBKTNV-1" source="fzq1yUbTCctabkoBCWMD-0" target="fzq1yUbTCctabkoBCWMD-4">
          <mxGeometry relative="1" as="geometry" />
        </mxCell>
        <mxCell id="fzq1yUbTCctabkoBCWMD-21" style="edgeStyle=orthogonalEdgeStyle;rounded=0;orthogonalLoop=1;jettySize=auto;html=1;exitX=0.75;exitY=1;exitDx=0;exitDy=0;entryX=0.75;entryY=0;entryDx=0;entryDy=0;" edge="1" parent="WIyWlLk6GJQsqaUBKTNV-1" source="fzq1yUbTCctabkoBCWMD-0" target="fzq1yUbTCctabkoBCWMD-7">
          <mxGeometry relative="1" as="geometry" />
        </mxCell>
        <mxCell id="fzq1yUbTCctabkoBCWMD-0" value="HOME" style="rounded=1;whiteSpace=wrap;html=1;arcSize=10;" vertex="1" parent="WIyWlLk6GJQsqaUBKTNV-1">
          <mxGeometry x="310" y="310" width="120" height="60" as="geometry" />
        </mxCell>
        <mxCell id="fzq1yUbTCctabkoBCWMD-11" style="edgeStyle=orthogonalEdgeStyle;rounded=0;orthogonalLoop=1;jettySize=auto;html=1;exitX=0.25;exitY=1;exitDx=0;exitDy=0;entryX=0.25;entryY=0;entryDx=0;entryDy=0;" edge="1" parent="WIyWlLk6GJQsqaUBKTNV-1" source="fzq1yUbTCctabkoBCWMD-1" target="fzq1yUbTCctabkoBCWMD-0">
          <mxGeometry relative="1" as="geometry" />
        </mxCell>
        <mxCell id="fzq1yUbTCctabkoBCWMD-13" style="edgeStyle=orthogonalEdgeStyle;rounded=0;orthogonalLoop=1;jettySize=auto;html=1;exitX=0;exitY=0.75;exitDx=0;exitDy=0;entryX=1;entryY=0.75;entryDx=0;entryDy=0;" edge="1" parent="WIyWlLk6GJQsqaUBKTNV-1" source="fzq1yUbTCctabkoBCWMD-1" target="fzq1yUbTCctabkoBCWMD-2">
          <mxGeometry relative="1" as="geometry" />
        </mxCell>
        <mxCell id="fzq1yUbTCctabkoBCWMD-1" value="LOGIN" style="rounded=1;whiteSpace=wrap;html=1;" vertex="1" parent="WIyWlLk6GJQsqaUBKTNV-1">
          <mxGeometry x="310" y="210" width="120" height="60" as="geometry" />
        </mxCell>
        <mxCell id="fzq1yUbTCctabkoBCWMD-12" style="edgeStyle=orthogonalEdgeStyle;rounded=0;orthogonalLoop=1;jettySize=auto;html=1;exitX=1;exitY=0.25;exitDx=0;exitDy=0;entryX=0;entryY=0.25;entryDx=0;entryDy=0;" edge="1" parent="WIyWlLk6GJQsqaUBKTNV-1" source="fzq1yUbTCctabkoBCWMD-2" target="fzq1yUbTCctabkoBCWMD-1">
          <mxGeometry relative="1" as="geometry" />
        </mxCell>
        <mxCell id="fzq1yUbTCctabkoBCWMD-14" style="edgeStyle=orthogonalEdgeStyle;rounded=0;orthogonalLoop=1;jettySize=auto;html=1;exitX=0.75;exitY=1;exitDx=0;exitDy=0;entryX=0;entryY=0.25;entryDx=0;entryDy=0;" edge="1" parent="WIyWlLk6GJQsqaUBKTNV-1" source="fzq1yUbTCctabkoBCWMD-2" target="fzq1yUbTCctabkoBCWMD-0">
          <mxGeometry relative="1" as="geometry" />
        </mxCell>
        <mxCell id="fzq1yUbTCctabkoBCWMD-2" value="SIGN IN" style="rounded=1;whiteSpace=wrap;html=1;" vertex="1" parent="WIyWlLk6GJQsqaUBKTNV-1">
          <mxGeometry x="90" y="210" width="120" height="60" as="geometry" />
        </mxCell>
        <mxCell id="fzq1yUbTCctabkoBCWMD-22" style="edgeStyle=orthogonalEdgeStyle;rounded=0;orthogonalLoop=1;jettySize=auto;html=1;exitX=0;exitY=0.25;exitDx=0;exitDy=0;entryX=1;entryY=0;entryDx=0;entryDy=0;" edge="1" parent="WIyWlLk6GJQsqaUBKTNV-1" source="fzq1yUbTCctabkoBCWMD-3" target="fzq1yUbTCctabkoBCWMD-0">
          <mxGeometry relative="1" as="geometry">
            <Array as="points">
              <mxPoint x="510" y="215" />
              <mxPoint x="510" y="310" />
            </Array>
          </mxGeometry>
        </mxCell>
        <mxCell id="fzq1yUbTCctabkoBCWMD-3" value="RICETTARIO" style="rounded=1;whiteSpace=wrap;html=1;" vertex="1" parent="WIyWlLk6GJQsqaUBKTNV-1">
          <mxGeometry x="590" y="200" width="120" height="60" as="geometry" />
        </mxCell>
        <mxCell id="fzq1yUbTCctabkoBCWMD-17" style="edgeStyle=orthogonalEdgeStyle;rounded=0;orthogonalLoop=1;jettySize=auto;html=1;exitX=0;exitY=0.75;exitDx=0;exitDy=0;entryX=1;entryY=0.75;entryDx=0;entryDy=0;" edge="1" parent="WIyWlLk6GJQsqaUBKTNV-1" source="fzq1yUbTCctabkoBCWMD-4" target="fzq1yUbTCctabkoBCWMD-0">
          <mxGeometry relative="1" as="geometry" />
        </mxCell>
        <mxCell id="fzq1yUbTCctabkoBCWMD-18" style="edgeStyle=orthogonalEdgeStyle;rounded=0;orthogonalLoop=1;jettySize=auto;html=1;exitX=0.75;exitY=0;exitDx=0;exitDy=0;entryX=0.75;entryY=1;entryDx=0;entryDy=0;" edge="1" parent="WIyWlLk6GJQsqaUBKTNV-1" source="fzq1yUbTCctabkoBCWMD-4" target="fzq1yUbTCctabkoBCWMD-3">
          <mxGeometry relative="1" as="geometry" />
        </mxCell>
        <mxCell id="fzq1yUbTCctabkoBCWMD-19" style="edgeStyle=orthogonalEdgeStyle;rounded=0;orthogonalLoop=1;jettySize=auto;html=1;exitX=0.25;exitY=0;exitDx=0;exitDy=0;entryX=0.25;entryY=1;entryDx=0;entryDy=0;" edge="1" parent="WIyWlLk6GJQsqaUBKTNV-1" source="fzq1yUbTCctabkoBCWMD-4" target="fzq1yUbTCctabkoBCWMD-3">
          <mxGeometry relative="1" as="geometry" />
        </mxCell>
        <mxCell id="fzq1yUbTCctabkoBCWMD-4" value="PROFILO" style="rounded=1;whiteSpace=wrap;html=1;" vertex="1" parent="WIyWlLk6GJQsqaUBKTNV-1">
          <mxGeometry x="590" y="310" width="120" height="60" as="geometry" />
        </mxCell>
        <mxCell id="fzq1yUbTCctabkoBCWMD-6" value="RICETTA" style="rounded=1;whiteSpace=wrap;html=1;" vertex="1" parent="WIyWlLk6GJQsqaUBKTNV-1">
          <mxGeometry x="460" y="110" width="120" height="60" as="geometry" />
        </mxCell>
        <mxCell id="fzq1yUbTCctabkoBCWMD-20" style="edgeStyle=orthogonalEdgeStyle;rounded=0;orthogonalLoop=1;jettySize=auto;html=1;exitX=0.25;exitY=0;exitDx=0;exitDy=0;entryX=0.25;entryY=1;entryDx=0;entryDy=0;" edge="1" parent="WIyWlLk6GJQsqaUBKTNV-1" source="fzq1yUbTCctabkoBCWMD-7" target="fzq1yUbTCctabkoBCWMD-0">
          <mxGeometry relative="1" as="geometry" />
        </mxCell>
        <mxCell id="fzq1yUbTCctabkoBCWMD-7" value="LISTA&lt;div&gt;RICETTE&lt;/div&gt;" style="rounded=1;whiteSpace=wrap;html=1;" vertex="1" parent="WIyWlLk6GJQsqaUBKTNV-1">
          <mxGeometry x="310" y="450" width="120" height="60" as="geometry" />
        </mxCell>
      </root>
    </mxGraphModel>
  </diagram>
</mxfile>
